# xmcd CD database file
#
# Track frame offsets:
#   150
#   18013
#   35959
#
# Disc length: 717 seconds
#
# Revision: 3
# Processed by: cddbd v1.5.2PL0 Copyright (c) Steve Scherf et al.
# Submitted via: CDex 1.51
#
DISCID=1c02cb03
DTITLE=Evanescene / Bring Me To Life
DYEAR=2002
DGENRE=Alternative Rock
TTITLE0=Bring Me To Life
TTITLE1=Bring Me To Life (Bliss Mix)
TTITLE2=Farther Away ( Bonus Track)
EXTD= YEAR: 2002
EXTT0=
EXTT1=
EXTT2=
PLAYORDER=
.
